<?xml version="1.0" encoding="UTF-8" standalone="no"?>
<svg width="120px" height="120px" viewBox="0 0 120 120" version="1.1" xmlns="http://www.w3.org/2000/svg" xmlns:xlink="http://www.w3.org/1999/xlink">
    <!-- Generator: Sketch 3.8.3 (29802) - http://www.bohemiancoding.com/sketch -->
    <title>Logo</title>
    <desc>Created with Sketch.</desc>
    <defs></defs>
    <g id="Page-1" stroke="none" stroke-width="1" fill="none" fill-rule="evenodd">
        <g id="Artboard-5" transform="translate(-640.000000, -288.000000)" fill="#8A8F99">
            <g id="Logo" transform="translate(640.000000, 288.000000)">
                <path d="M59.8864421,113.693116 C30.2950737,113.693116 6.30707368,89.7044842 6.30707368,60.1137474 C6.30707368,30.5223789 30.2950737,6.53374737 59.8864421,6.53374737 C89.4778105,6.53374737 113.465811,30.5223789 113.465811,60.1137474 C113.465811,89.7044842 89.4778105,113.693116 59.8864421,113.693116 M59.8864421,0.2268 C26.8119158,0.2268 0.00012631579,27.0392211 0.00012631579,60.1137474 C0.00012631579,93.1876421 26.8119158,120.000063 59.8864421,120.000063 C92.9609684,120.000063 119.772758,93.1876421 119.772758,60.1137474 C119.772758,27.0392211 92.9609684,0.2268 59.8864421,0.2268" id="Fill-1"></path>
                <path d="M59.3535439,84.9438596 L46.8830175,84.9514386 L46.8830175,35.6301754 L59.3516491,35.6838596 C72.9400702,35.6838596 81.2219649,46.7529123 81.2219649,60.3407018 C81.2219649,73.9284912 72.9413333,84.9438596 59.3535439,84.9438596 M59.338386,29.3333333 L42.4284912,29.3333333 C41.8240702,29.3333333 41.3333333,29.8240702 41.3333333,30.4284912 L41.3333333,90.110807 C41.3333333,90.7158596 41.8247018,91.2065965 42.4297544,91.2059649 L59.6927018,91.190807 C76.8078596,91.190807 87.9552281,77.2341754 87.866807,60.0981754 C87.7777544,43.0259649 77.1981754,29.3333333 59.338386,29.3333333" id="Fill-4"></path>
            </g>
        </g>
    </g>
</svg>