<svg width="120" height="120" viewBox="0 0 120 120" xmlns="http://www.w3.org/2000/svg"><g fill="#FFF" fill-rule="evenodd"><path d="M59.886 113.693c-29.59 0-53.58-23.99-53.58-53.58s23.99-53.58 53.58-53.58c29.592 0 53.58 23.99 53.58 53.58s-23.988 53.58-53.58 53.58m0-113.466C26.812.227 0 27.04 0 60.114 0 93.188 26.812 120 59.886 120c33.075 0 59.887-26.812 59.887-59.886C119.773 27.04 92.96.227 59.886.227"/><path d="M59.354 84.944l-12.47.007V35.63l12.468.054c13.588 0 21.87 11.07 21.87 24.657 0 13.588-8.28 24.604-21.868 24.604m-.016-55.61h-16.91c-.604 0-1.095.49-1.095 1.094V90.11c0 .606.492 1.097 1.097 1.096l17.263-.015c17.115 0 28.262-13.956 28.174-31.092-.09-17.072-10.67-30.765-28.53-30.765"/></g></svg>